<svg width="17" height="30" viewBox="0 0 17 30" fill="none" xmlns="http://www.w3.org/2000/svg">
<path d="M15.6848 0.832503C15.9028 1.05575 16.0249 1.35543 16.0249 1.6675C16.0249 1.97957 15.9028 2.27926 15.6848 2.5025L3.50227 15L15.6848 27.495C15.9028 27.7182 16.0249 28.0179 16.0249 28.33C16.0249 28.6421 15.9028 28.9418 15.6848 29.165C15.5788 29.2739 15.4521 29.3604 15.3121 29.4195C15.1721 29.4785 15.0217 29.509 14.8698 29.509C14.7178 29.509 14.5674 29.4785 14.4275 29.4195C14.2875 29.3604 14.1608 29.2739 14.0548 29.165L1.09977 15.8725C0.872234 15.6391 0.74489 15.326 0.74489 15C0.74489 14.674 0.872234 14.3609 1.09977 14.1275L14.0548 0.835003C14.1608 0.726145 14.2875 0.639622 14.4275 0.580544C14.5674 0.521465 14.7178 0.491028 14.8698 0.491028C15.0217 0.491028 15.1721 0.521465 15.3121 0.580544C15.4521 0.639622 15.5788 0.726145 15.6848 0.835003V0.832503Z" fill="white"/>
</svg>
