<svg width="17" height="30" viewBox="0 0 17 30" fill="none" xmlns="http://www.w3.org/2000/svg">
<path d="M1.31523 0.832503C1.09717 1.05575 0.975098 1.35543 0.975098 1.6675C0.975098 1.97957 1.09717 2.27926 1.31523 2.5025L13.4977 15L1.31523 27.495C1.09717 27.7182 0.975098 28.0179 0.975098 28.33C0.975098 28.6421 1.09717 28.9418 1.31523 29.165C1.42122 29.2739 1.54794 29.3604 1.68792 29.4195C1.8279 29.4785 1.9783 29.509 2.13023 29.509C2.28216 29.509 2.43256 29.4785 2.57254 29.4195C2.71252 29.3604 2.83924 29.2739 2.94523 29.165L15.9002 15.8725C16.1278 15.6391 16.2551 15.326 16.2551 15C16.2551 14.674 16.1278 14.3609 15.9002 14.1275L2.94523 0.835003C2.83924 0.726145 2.71252 0.639622 2.57254 0.580544C2.43256 0.521465 2.28216 0.491028 2.13023 0.491028C1.9783 0.491028 1.8279 0.521465 1.68792 0.580544C1.54794 0.639622 1.42122 0.726145 1.31523 0.835003V0.832503Z" fill="white"/>
</svg>
