<svg width="16" height="11" viewBox="0 0 16 11" fill="none" xmlns="http://www.w3.org/2000/svg">
<path d="M0.799202 9.42857H10.4003C10.6042 9.42879 10.8003 9.50548 10.9486 9.64295C11.0969 9.78043 11.1861 9.96832 11.1981 10.1682C11.21 10.3682 11.1438 10.565 11.0129 10.7186C10.882 10.8722 10.6964 10.9708 10.4939 10.9945L10.4003 11H0.799202C0.595276 10.9998 0.399132 10.9231 0.250847 10.7856C0.102562 10.6481 0.0133272 10.4603 0.00137618 10.2603C-0.0105748 10.0604 0.0556596 9.86356 0.186546 9.70999C0.317433 9.55642 0.503093 9.45772 0.705592 9.43407L0.799202 9.42857H10.4003H0.799202ZM0.799202 6.28571H15.2008C15.4047 6.28594 15.6009 6.36262 15.7492 6.50009C15.8974 6.63757 15.9867 6.82546 15.9986 7.02538C16.0106 7.2253 15.9443 7.42215 15.8135 7.57573C15.6826 7.7293 15.4969 7.82799 15.2944 7.85164L15.2008 7.85714H0.799202C0.595276 7.85692 0.399132 7.78024 0.250847 7.64276C0.102562 7.50529 0.0133272 7.31739 0.00137618 7.11748C-0.0105748 6.91756 0.0556596 6.7207 0.186546 6.56713C0.317433 6.41356 0.503093 6.31487 0.705592 6.29121L0.799202 6.28571H15.2008H0.799202ZM0.799202 3.14286H15.2008C15.4047 3.14308 15.6009 3.21976 15.7492 3.35724C15.8974 3.49471 15.9867 3.68261 15.9986 3.88252C16.0106 4.08244 15.9443 4.2793 15.8135 4.43287C15.6826 4.58644 15.4969 4.68513 15.2944 4.70879L15.2008 4.71429H0.799202C0.595276 4.71406 0.399132 4.63738 0.250847 4.4999C0.102562 4.36243 0.0133272 4.17454 0.00137618 3.97462C-0.0105748 3.7747 0.0556596 3.57784 0.186546 3.42427C0.317433 3.2707 0.503093 3.17201 0.705592 3.14836L0.799202 3.14286H15.2008H0.799202ZM0.799202 0H15.2008C15.4047 0.000222127 15.6009 0.0769049 15.7492 0.214381C15.8974 0.351856 15.9867 0.539749 15.9986 0.739667C16.0106 0.939586 15.9443 1.13644 15.8135 1.29001C15.6826 1.44358 15.4969 1.54228 15.2944 1.56593L15.2008 1.57143H0.799202C0.595276 1.57121 0.399132 1.49452 0.250847 1.35705C0.102562 1.21957 0.0133272 1.03168 0.00137618 0.831761C-0.0105748 0.631843 0.0556596 0.434988 0.186546 0.281417C0.317433 0.127847 0.503093 0.0291528 0.705592 0.00549998L0.799202 0H15.2008H0.799202Z" fill="#333333"/>
</svg>
