<svg width="127" height="28" viewBox="0 0 127 28" fill="none" xmlns="http://www.w3.org/2000/svg">
<path d="M4.37213 7.68572L4.37213 12.6629L11.0447 12.6629V15.9314L4.37213 15.9314L4.37213 27H1L1 7.20286C1 5.37048 1.56202 3.89715 2.68607 2.78286C3.45137 2.04 4.31235 1.55715 5.26898 1.33429C6.22562 1.11143 7.3975 1 8.78462 1L12.5872 1V4.26857H8.31826C5.68751 4.26857 4.37213 5.40762 4.37213 7.68572Z" fill="#333333"/>
<path d="M20.989 27H17.6169L17.6169 1L20.989 1L20.989 27Z" fill="#333333"/>
<path d="M26.2041 4.26857V1L41.9886 1V4.26857L35.7825 4.26857L35.7825 27L32.4103 27V4.26857L26.2041 4.26857Z" fill="#333333"/>
<path d="M68.9525 23.7314H71.5355V15.9314H67.8405V12.6629L74.9076 12.6629V27H69.383C65.5326 27 62.5072 25.8733 60.307 23.62C58.1306 21.3419 57.0305 18.1352 57.0066 14C57.0305 9.86476 58.1306 6.67048 60.307 4.41714C62.5072 2.13905 65.5326 1 69.383 1L73.5085 1V4.26857L68.9525 4.26857C66.2979 4.26857 64.2531 5.18476 62.8181 7.01714C61.4071 8.82476 60.6777 11.1524 60.6298 14C60.6777 16.8476 61.4071 19.1876 62.8181 21.02C64.2531 22.8276 66.2979 23.7314 68.9525 23.7314Z" fill="#333333"/>
<path d="M96.5488 1V2.85714C96.5488 5.87809 95.9987 8.65143 94.8986 11.1771C93.8223 13.6781 92.2439 15.5848 90.1632 16.8971V27H86.7911V16.9714C84.7104 15.6838 83.108 13.8143 81.984 11.3629C80.8599 8.88667 80.2979 6.16286 80.2979 3.19143V1L83.7418 1V2.85714C83.7418 5.40762 84.0886 7.59905 84.7821 9.43143C85.4996 11.239 86.7313 12.7248 88.4771 13.8886C91.6101 11.7343 93.1766 8.05714 93.1766 2.85714V1L96.5488 1Z" fill="#333333"/>
<path d="M114.126 18.94H114.341L117.283 7.46286C117.904 4.98667 118.861 3.29047 120.153 2.37428C121.444 1.45809 123.393 1 126 1V27H122.628V4.93714C122.006 5.20952 121.528 5.59334 121.193 6.08857C120.882 6.58381 120.583 7.32667 120.296 8.31714L115.812 24.2514H112.655L108.135 8.31714C107.848 7.3019 107.549 6.55905 107.238 6.08857C106.927 5.59334 106.461 5.20952 105.839 4.93714V27H102.467V1C105.074 1 107.011 1.47048 108.278 2.41143C109.57 3.32762 110.538 5.01143 111.184 7.46286L114.126 18.94Z" fill="#333333"/>
<path fill-rule="evenodd" clip-rule="evenodd" d="M2.68607 2.78286C1.56202 3.89715 1 5.37048 1 7.20286L1 27H4.37213L4.37213 15.9314L11.0447 15.9314V12.6629L4.37213 12.6629L4.37213 7.68572C4.37213 5.40762 5.68751 4.26857 8.31826 4.26857H12.5872V1L8.78462 1C7.3975 1 6.22562 1.11143 5.26898 1.33429C4.31235 1.55715 3.45137 2.04 2.68607 2.78286ZM5.37213 11.6629L5.37213 7.68572C5.37213 6.74132 5.63809 6.20371 6.01329 5.87882C6.416 5.53008 7.12457 5.26857 8.31826 5.26857H13.5872V0L8.78462 0C7.34972 0 6.09659 0.114712 5.0421 0.360366C3.89346 0.627951 2.87364 1.20716 1.98956 2.06531L1.98205 2.07268C0.638482 3.40458 0 5.14934 0 7.20286L0 28H5.37213L5.37213 16.9314L12.0447 16.9314L12.0447 11.6629L5.37213 11.6629ZM21.989 28H16.6169L16.6169 0L21.989 0L21.989 28ZM25.2041 5.26857V0L42.9886 0V5.26857L36.7825 5.26857L36.7825 28L31.4103 28L31.4103 5.26857L25.2041 5.26857ZM32.4103 4.26857L32.4103 27L35.7825 27L35.7825 4.26857L41.9886 4.26857V1L26.2041 1V4.26857L32.4103 4.26857ZM66.8405 16.9314V11.6629L75.9076 11.6629V28H69.383C65.3273 28 62.0204 26.8061 59.5915 24.3186L59.5838 24.3108C57.1816 21.7962 56.0315 18.3141 56.0066 14.0058L56.0065 13.9942C56.0314 9.68652 57.1814 6.21386 59.5877 3.72243C62.0159 1.20831 65.3241 0 69.383 0L74.5085 0V5.26857L68.9525 5.26857C66.5568 5.26857 64.8232 6.07915 63.6062 7.63279C62.3611 9.22794 61.6776 11.3243 61.63 14C61.6776 16.6722 62.3594 18.7823 63.6059 20.404C64.821 21.9312 66.5543 22.7314 68.9525 22.7314H70.5355V16.9314H66.8405ZM71.5355 15.9314V23.7314H68.9525C66.2979 23.7314 64.2531 22.8276 62.8181 21.02C61.4071 19.1876 60.6777 16.8476 60.6298 14C60.6777 11.1524 61.4071 8.82476 62.8181 7.01714C64.2531 5.18476 66.2979 4.26857 68.9525 4.26857L73.5085 4.26857V1L69.383 1C65.5326 1 62.5072 2.13905 60.307 4.41714C58.1306 6.67048 57.0305 9.86476 57.0066 14C57.0305 18.1352 58.1306 21.3419 60.307 23.62C62.5072 25.8733 65.5326 27 69.383 27H74.9076V12.6629L67.8405 12.6629V15.9314H71.5355ZM97.5488 0V2.85714C97.5488 6.0009 96.9759 8.91079 95.8167 11.5733C94.7495 14.0529 93.201 16.0196 91.1632 17.4342V28H85.7911V17.5141C83.7574 16.1293 82.1875 14.2059 81.075 11.7797L81.0734 11.7762C79.8851 9.15854 79.2979 6.29208 79.2979 3.19143V0L84.7418 0V2.85714C84.7418 5.31773 85.0764 7.38059 85.7146 9.0701C86.2727 10.4723 87.1802 11.6649 88.4648 12.651C90.8783 10.6979 92.1766 7.51522 92.1766 2.85714V0L97.5488 0ZM88.4771 13.8886C86.7313 12.7248 85.4996 11.239 84.7821 9.43143C84.0886 7.59905 83.7418 5.40762 83.7418 2.85714V1L80.2979 1V3.19143C80.2979 6.16286 80.8599 8.88667 81.984 11.3629C83.108 13.8143 84.7104 15.6838 86.7911 16.9714V27H90.1632V16.8971C92.2439 15.5848 93.8223 13.6781 94.8986 11.1771C95.9987 8.65143 96.5488 5.87809 96.5488 2.85714V1L93.1766 1V2.85714C93.1766 8.05714 91.6101 11.7343 88.4771 13.8886ZM111.184 7.46286L114.126 18.94H114.341L117.283 7.46286C117.904 4.98667 118.861 3.29047 120.153 2.37428C121.273 1.57929 122.889 1.12921 125 1.02405C125.322 1.00802 125.655 1 126 1V27H122.628V4.93714C122.238 5.10784 121.905 5.32231 121.628 5.58054C121.463 5.73436 121.318 5.9037 121.193 6.08857C120.882 6.58381 120.583 7.32667 120.296 8.31714L115.812 24.2514H112.655L108.135 8.31714C107.848 7.3019 107.549 6.55905 107.238 6.08857C107.125 5.90917 106.992 5.74439 106.839 5.59424C106.569 5.32988 106.235 5.11085 105.839 4.93714V27H102.467V1C102.812 1 103.145 1.00824 103.467 1.02473C105.575 1.1328 107.179 1.59503 108.278 2.41143C109.57 3.32762 110.538 5.01143 111.184 7.46286ZM108.866 1.60208C107.346 0.4783 105.156 0 102.467 0L101.467 0V28H106.839V7.55549C106.947 7.84289 107.059 8.18563 107.173 8.58917L111.899 25.2514H116.569L121.257 8.59545C121.257 8.59429 121.257 8.59314 121.258 8.59198C121.384 8.15725 121.508 7.78838 121.628 7.47983V28H127V0L126 0C123.308 0 121.112 0.467359 119.574 1.55868C118 2.6751 116.96 4.64342 116.313 7.21674C116.313 7.2176 116.313 7.21845 116.313 7.2193L114.233 15.3322L112.153 7.21457L112.151 7.20814C111.481 4.66259 110.429 2.71563 108.866 1.60208ZM20.989 27L20.989 1L17.6169 1L17.6169 27H20.989Z" fill="#333333"/>
</svg>
