<svg width="201" height="201" viewBox="0 0 201 201" fill="none" xmlns="http://www.w3.org/2000/svg">
<path d="M177.423 164.405C187.7 152.04 194.848 137.381 198.262 121.67C201.676 105.958 201.255 89.6545 197.036 74.1394C192.816 58.6243 184.922 44.3537 174.021 32.5348C163.12 20.7159 149.532 11.6964 134.408 6.23923C119.284 0.782091 103.068 -0.95212 87.1319 1.1833C71.1957 3.31873 56.0083 9.26097 42.8544 18.5073C29.7005 27.7537 18.967 40.0322 11.5621 54.3041C4.15711 68.576 0.298455 84.4215 0.312538 100.5C0.317943 123.874 8.55471 146.499 23.5775 164.405L23.4344 164.527C23.9353 165.128 24.5078 165.643 25.0231 166.237C25.6671 166.974 26.3613 167.669 27.0268 168.384C29.0306 170.56 31.0916 172.649 33.2528 174.61C33.9111 175.211 34.591 175.769 35.2565 176.342C37.5465 178.317 39.9009 180.192 42.3412 181.938C42.6561 182.153 42.9423 182.432 43.2572 182.654V182.568C60.0179 194.363 80.0124 200.693 100.507 200.693C121.002 200.693 140.997 194.363 157.757 182.568V182.654C158.072 182.432 158.351 182.153 158.673 181.938C161.106 180.185 163.468 178.317 165.758 176.342C166.423 175.769 167.103 175.204 167.762 174.61C169.923 172.642 171.984 170.56 173.988 168.384C174.653 167.669 175.34 166.974 175.991 166.237C176.499 165.643 177.079 165.128 177.58 164.52L177.423 164.405ZM100.5 43.25C106.869 43.25 113.095 45.1387 118.391 48.6772C123.687 52.2158 127.814 57.2452 130.252 63.1296C132.689 69.0139 133.327 75.4889 132.084 81.7357C130.842 87.9825 127.775 93.7205 123.271 98.2242C118.767 102.728 113.029 105.795 106.783 107.038C100.536 108.28 94.0608 107.642 88.1764 105.205C82.2921 102.768 77.2626 98.64 73.7241 93.3442C70.1856 88.0485 68.2969 81.8223 68.2969 75.4532C68.2969 66.9124 71.6897 58.7214 77.729 52.6821C83.7682 46.6429 91.9592 43.25 100.5 43.25V43.25ZM43.3001 164.405C43.4243 155.009 47.2428 146.039 53.9297 139.437C60.6166 132.834 69.6341 129.13 79.0313 129.125H121.969C131.366 129.13 140.383 132.834 147.07 139.437C153.757 146.039 157.576 155.009 157.7 164.405C142.005 178.548 121.627 186.376 100.5 186.376C79.3729 186.376 58.9949 178.548 43.3001 164.405V164.405Z" fill="#333333"/>
</svg>
